<?xml version="1.0" standalone="no"?>
<!DOCTYPE svg PUBLIC "-//W3C//DTD SVG 20010904//EN"
 "http://www.w3.org/TR/2001/REC-SVG-20010904/DTD/svg10.dtd">
<svg version="1.0" xmlns="http://www.w3.org/2000/svg"
 width="1920.000000pt" height="1300.000000pt" viewBox="0 0 1920.000000 1300.000000"
 preserveAspectRatio="xMidYMid meet">

<g transform="translate(0.000000,1300.000000) scale(0.100000,-0.100000)"
fill="#000000" stroke="none">
<path d="M1485 11384 c-328 -10 -741 -38 -1020 -69 -140 -16 -406 -52 -442
-60 l-23 -5 0 -1110 0 -1110 23 -5 c36 -8 302 -44 442 -60 722 -81 1576 -92
2330 -29 699 58 1345 180 1850 348 427 143 700 290 891 480 79 80 108 117 137
176 69 140 69 260 1 400 -69 139 -259 306 -494 433 -579 313 -1600 534 -2755
597 -199 10 -767 19 -940 14z"/>
<path d="M9693 11342 c-44 -24 -2852 -3010 -2870 -3050 -12 -30 -12 -37 1 -57
20 -30 3172 -2997 3197 -3009 12 -6 29 -3 52 10 45 25 2855 3009 2873 3052 11
24 12 38 4 52 -6 11 -691 659 -1523 1441 -832 782 -1546 1455 -1587 1494 -41
40 -84 76 -95 79 -12 3 -34 -2 -52 -12z"/>
<path d="M16050 9877 c-497 -628 -904 -1149 -904 -1157 0 -19 1791 -2304 1809
-2308 11 -3 2007 583 2198 644 l47 16 0 1638 c0 1552 -1 1639 -17 1644 -10 3
-509 154 -1110 336 -600 181 -1098 330 -1105 330 -7 0 -420 -514 -918 -1143z"/>
<path d="M4595 5999 c-571 -56 -1402 -478 -2270 -1153 -405 -314 -780 -651
-1205 -1082 -368 -374 -635 -673 -962 -1083 l-158 -196 0 -1242 0 -1243 878 0
877 0 125 101 c641 516 1310 1181 1873 1861 734 888 1285 1798 1532 2533 157
464 191 820 104 1078 -36 110 -67 163 -137 238 -99 107 -234 168 -414 188
-106 12 -125 12 -243 0z"/>
<path d="M15470 5860 c-426 -50 -702 -375 -774 -913 -59 -438 8 -979 199
-1592 236 -760 685 -1625 1208 -2328 247 -333 451 -571 723 -844 l181 -183
1097 0 1096 0 0 1090 0 1091 -76 172 c-565 1275 -1485 2456 -2397 3075 -379
257 -723 401 -1036 432 -113 11 -125 11 -221 0z"/>
</g>
</svg>
